<?xml version="1.0" encoding="utf-8" standalone="no"?>
<!DOCTYPE svg PUBLIC "-//W3C//DTD SVG 1.1//EN"
  "http://www.w3.org/Graphics/SVG/1.1/DTD/svg11.dtd">
<svg xmlns:xlink="http://www.w3.org/1999/xlink" width="504pt" height="252pt" viewBox="0 0 504 252" xmlns="http://www.w3.org/2000/svg" version="1.1">
 <metadata>
  <rdf:RDF xmlns:dc="http://purl.org/dc/elements/1.1/" xmlns:cc="http://creativecommons.org/ns#" xmlns:rdf="http://www.w3.org/1999/02/22-rdf-syntax-ns#">
   <cc:Work>
    <dc:type rdf:resource="http://purl.org/dc/dcmitype/StillImage"/>
    <dc:date>2025-09-26T07:50:47.062146</dc:date>
    <dc:format>image/svg+xml</dc:format>
    <dc:creator>
     <cc:Agent>
      <dc:title>Matplotlib v3.10.6, https://matplotlib.org/</dc:title>
     </cc:Agent>
    </dc:creator>
   </cc:Work>
  </rdf:RDF>
 </metadata>
 <defs>
  <style type="text/css">*{stroke-linejoin: round; stroke-linecap: butt}</style>
 </defs>
 <g id="figure_1">
  <g id="patch_1">
   <path d="M 0 252 
L 504 252 
L 504 0 
L 0 0 
z
" style="fill: #ffffff"/>
  </g>
  <g id="axes_1">
   <g id="patch_2">
    <path d="M 54.92 169.309709 
L 446.56 169.309709 
L 446.56 25.44 
L 54.92 25.44 
z
" style="fill: #ffffff"/>
   </g>
   <g id="matplotlib.axis_1">
    <g id="xtick_1">
     <g id="line2d_1">
      <path d="M 54.92 169.309709 
L 54.92 25.44 
" clip-path="url(#p33dcbdf1f4)" style="fill: none; stroke: #b0b0b0; stroke-width: 0.8; stroke-linecap: square"/>
     </g>
     <g id="line2d_2">
      <defs>
       <path id="m529632cc28" d="M 0 0 
L 0 3.5 
" style="stroke: #000000; stroke-width: 0.8"/>
      </defs>
      <g>
       <use xlink:href="#m529632cc28" x="54.92" y="169.309709" style="stroke: #000000; stroke-width: 0.8"/>
      </g>
     </g>
     <g id="text_1">
      <!-- Monday -->
      <g transform="translate(35.363687 211.437086) rotate(-50) scale(0.1 -0.1)">
       <defs>
        <path id="DejaVuSans-4d" d="M 628 4666 
L 1569 4666 
L 2759 1491 
L 3956 4666 
L 4897 4666 
L 4897 0 
L 4281 0 
L 4281 4097 
L 3078 897 
L 2444 897 
L 1241 4097 
L 1241 0 
L 628 0 
L 628 4666 
z
" transform="scale(0.015625)"/>
        <path id="DejaVuSans-6f" d="M 1959 3097 
Q 1497 3097 1228 2736 
Q 959 2375 959 1747 
Q 959 1119 1226 758 
Q 1494 397 1959 397 
Q 2419 397 2687 759 
Q 2956 1122 2956 1747 
Q 2956 2369 2687 2733 
Q 2419 3097 1959 3097 
z
M 1959 3584 
Q 2709 3584 3137 3096 
Q 3566 2609 3566 1747 
Q 3566 888 3137 398 
Q 2709 -91 1959 -91 
Q 1206 -91 779 398 
Q 353 888 353 1747 
Q 353 2609 779 3096 
Q 1206 3584 1959 3584 
z
" transform="scale(0.015625)"/>
        <path id="DejaVuSans-6e" d="M 3513 2113 
L 3513 0 
L 2938 0 
L 2938 2094 
Q 2938 2591 2744 2837 
Q 2550 3084 2163 3084 
Q 1697 3084 1428 2787 
Q 1159 2491 1159 1978 
L 1159 0 
L 581 0 
L 581 3500 
L 1159 3500 
L 1159 2956 
Q 1366 3272 1645 3428 
Q 1925 3584 2291 3584 
Q 2894 3584 3203 3211 
Q 3513 2838 3513 2113 
z
" transform="scale(0.015625)"/>
        <path id="DejaVuSans-64" d="M 2906 2969 
L 2906 4863 
L 3481 4863 
L 3481 0 
L 2906 0 
L 2906 525 
Q 2725 213 2448 61 
Q 2172 -91 1784 -91 
Q 1150 -91 751 415 
Q 353 922 353 1747 
Q 353 2572 751 3078 
Q 1150 3584 1784 3584 
Q 2172 3584 2448 3432 
Q 2725 3281 2906 2969 
z
M 947 1747 
Q 947 1113 1208 752 
Q 1469 391 1925 391 
Q 2381 391 2643 752 
Q 2906 1113 2906 1747 
Q 2906 2381 2643 2742 
Q 2381 3103 1925 3103 
Q 1469 3103 1208 2742 
Q 947 2381 947 1747 
z
" transform="scale(0.015625)"/>
        <path id="DejaVuSans-61" d="M 2194 1759 
Q 1497 1759 1228 1600 
Q 959 1441 959 1056 
Q 959 750 1161 570 
Q 1363 391 1709 391 
Q 2188 391 2477 730 
Q 2766 1069 2766 1631 
L 2766 1759 
L 2194 1759 
z
M 3341 1997 
L 3341 0 
L 2766 0 
L 2766 531 
Q 2569 213 2275 61 
Q 1981 -91 1556 -91 
Q 1019 -91 701 211 
Q 384 513 384 1019 
Q 384 1609 779 1909 
Q 1175 2209 1959 2209 
L 2766 2209 
L 2766 2266 
Q 2766 2663 2505 2880 
Q 2244 3097 1772 3097 
Q 1472 3097 1187 3025 
Q 903 2953 641 2809 
L 641 3341 
Q 956 3463 1253 3523 
Q 1550 3584 1831 3584 
Q 2591 3584 2966 3190 
Q 3341 2797 3341 1997 
z
" transform="scale(0.015625)"/>
        <path id="DejaVuSans-79" d="M 2059 -325 
Q 1816 -950 1584 -1140 
Q 1353 -1331 966 -1331 
L 506 -1331 
L 506 -850 
L 844 -850 
Q 1081 -850 1212 -737 
Q 1344 -625 1503 -206 
L 1606 56 
L 191 3500 
L 800 3500 
L 1894 763 
L 2988 3500 
L 3597 3500 
L 2059 -325 
z
" transform="scale(0.015625)"/>
       </defs>
       <use xlink:href="#DejaVuSans-4d"/>
       <use xlink:href="#DejaVuSans-6f" transform="translate(86.279297 0)"/>
       <use xlink:href="#DejaVuSans-6e" transform="translate(147.460938 0)"/>
       <use xlink:href="#DejaVuSans-64" transform="translate(210.839844 0)"/>
       <use xlink:href="#DejaVuSans-61" transform="translate(274.316406 0)"/>
       <use xlink:href="#DejaVuSans-79" transform="translate(335.595703 0)"/>
      </g>
     </g>
    </g>
    <g id="xtick_2">
     <g id="line2d_3">
      <path d="M 111.035582 169.309709 
L 111.035582 25.44 
" clip-path="url(#p33dcbdf1f4)" style="fill: none; stroke: #b0b0b0; stroke-width: 0.8; stroke-linecap: square"/>
     </g>
     <g id="line2d_4">
      <g>
       <use xlink:href="#m529632cc28" x="111.035582" y="169.309709" style="stroke: #000000; stroke-width: 0.8"/>
      </g>
     </g>
     <g id="text_2">
      <!-- Tuesday -->
      <g transform="translate(90.700893 212.364718) rotate(-50) scale(0.1 -0.1)">
       <defs>
        <path id="DejaVuSans-54" d="M -19 4666 
L 3928 4666 
L 3928 4134 
L 2272 4134 
L 2272 0 
L 1638 0 
L 1638 4134 
L -19 4134 
L -19 4666 
z
" transform="scale(0.015625)"/>
        <path id="DejaVuSans-75" d="M 544 1381 
L 544 3500 
L 1119 3500 
L 1119 1403 
Q 1119 906 1312 657 
Q 1506 409 1894 409 
Q 2359 409 2629 706 
Q 2900 1003 2900 1516 
L 2900 3500 
L 3475 3500 
L 3475 0 
L 2900 0 
L 2900 538 
Q 2691 219 2414 64 
Q 2138 -91 1772 -91 
Q 1169 -91 856 284 
Q 544 659 544 1381 
z
M 1991 3584 
L 1991 3584 
z
" transform="scale(0.015625)"/>
        <path id="DejaVuSans-65" d="M 3597 1894 
L 3597 1613 
L 953 1613 
Q 991 1019 1311 708 
Q 1631 397 2203 397 
Q 2534 397 2845 478 
Q 3156 559 3463 722 
L 3463 178 
Q 3153 47 2828 -22 
Q 2503 -91 2169 -91 
Q 1331 -91 842 396 
Q 353 884 353 1716 
Q 353 2575 817 3079 
Q 1281 3584 2069 3584 
Q 2775 3584 3186 3129 
Q 3597 2675 3597 1894 
z
M 3022 2063 
Q 3016 2534 2758 2815 
Q 2500 3097 2075 3097 
Q 1594 3097 1305 2825 
Q 1016 2553 972 2059 
L 3022 2063 
z
" transform="scale(0.015625)"/>
        <path id="DejaVuSans-73" d="M 2834 3397 
L 2834 2853 
Q 2591 2978 2328 3040 
Q 2066 3103 1784 3103 
Q 1356 3103 1142 2972 
Q 928 2841 928 2578 
Q 928 2378 1081 2264 
Q 1234 2150 1697 2047 
L 1894 2003 
Q 2506 1872 2764 1633 
Q 3022 1394 3022 966 
Q 3022 478 2636 193 
Q 2250 -91 1575 -91 
Q 1294 -91 989 -36 
Q 684 19 347 128 
L 347 722 
Q 666 556 975 473 
Q 1284 391 1588 391 
Q 1994 391 2212 530 
Q 2431 669 2431 922 
Q 2431 1156 2273 1281 
Q 2116 1406 1581 1522 
L 1381 1569 
Q 847 1681 609 1914 
Q 372 2147 372 2553 
Q 372 3047 722 3315 
Q 1072 3584 1716 3584 
Q 2034 3584 2315 3537 
Q 2597 3491 2834 3397 
z
" transform="scale(0.015625)"/>
       </defs>
       <use xlink:href="#DejaVuSans-54"/>
       <use xlink:href="#DejaVuSans-75" transform="translate(45.958984 0)"/>
       <use xlink:href="#DejaVuSans-65" transform="translate(109.337891 0)"/>
       <use xlink:href="#DejaVuSans-73" transform="translate(170.861328 0)"/>
       <use xlink:href="#DejaVuSans-64" transform="translate(222.960938 0)"/>
       <use xlink:href="#DejaVuSans-61" transform="translate(286.4375 0)"/>
       <use xlink:href="#DejaVuSans-79" transform="translate(347.716797 0)"/>
      </g>
     </g>
    </g>
    <g id="xtick_3">
     <g id="line2d_5">
      <path d="M 167.151164 169.309709 
L 167.151164 25.44 
" clip-path="url(#p33dcbdf1f4)" style="fill: none; stroke: #b0b0b0; stroke-width: 0.8; stroke-linecap: square"/>
     </g>
     <g id="line2d_6">
      <g>
       <use xlink:href="#m529632cc28" x="167.151164" y="169.309709" style="stroke: #000000; stroke-width: 0.8"/>
      </g>
     </g>
     <g id="text_3">
      <!-- Wednesday -->
      <g transform="translate(135.756511 225.54547) rotate(-50) scale(0.1 -0.1)">
       <defs>
        <path id="DejaVuSans-57" d="M 213 4666 
L 850 4666 
L 1831 722 
L 2809 4666 
L 3519 4666 
L 4500 722 
L 5478 4666 
L 6119 4666 
L 4947 0 
L 4153 0 
L 3169 4050 
L 2175 0 
L 1381 0 
L 213 4666 
z
" transform="scale(0.015625)"/>
       </defs>
       <use xlink:href="#DejaVuSans-57"/>
       <use xlink:href="#DejaVuSans-65" transform="translate(93.001953 0)"/>
       <use xlink:href="#DejaVuSans-64" transform="translate(154.525391 0)"/>
       <use xlink:href="#DejaVuSans-6e" transform="translate(218.001953 0)"/>
       <use xlink:href="#DejaVuSans-65" transform="translate(281.380859 0)"/>
       <use xlink:href="#DejaVuSans-73" transform="translate(342.904297 0)"/>
       <use xlink:href="#DejaVuSans-64" transform="translate(395.003906 0)"/>
       <use xlink:href="#DejaVuSans-61" transform="translate(458.480469 0)"/>
       <use xlink:href="#DejaVuSans-79" transform="translate(519.759766 0)"/>
      </g>
     </g>
    </g>
    <g id="xtick_4">
     <g id="line2d_7">
      <path d="M 223.266746 169.309709 
L 223.266746 25.44 
" clip-path="url(#p33dcbdf1f4)" style="fill: none; stroke: #b0b0b0; stroke-width: 0.8; stroke-linecap: square"/>
     </g>
     <g id="line2d_8">
      <g>
       <use xlink:href="#m529632cc28" x="223.266746" y="169.309709" style="stroke: #000000; stroke-width: 0.8"/>
      </g>
     </g>
     <g id="text_4">
      <!-- Thursday -->
      <g transform="translate(199.198868 216.81376) rotate(-50) scale(0.1 -0.1)">
       <defs>
        <path id="DejaVuSans-68" d="M 3513 2113 
L 3513 0 
L 2938 0 
L 2938 2094 
Q 2938 2591 2744 2837 
Q 2550 3084 2163 3084 
Q 1697 3084 1428 2787 
Q 1159 2491 1159 1978 
L 1159 0 
L 581 0 
L 581 4863 
L 1159 4863 
L 1159 2956 
Q 1366 3272 1645 3428 
Q 1925 3584 2291 3584 
Q 2894 3584 3203 3211 
Q 3513 2838 3513 2113 
z
" transform="scale(0.015625)"/>
        <path id="DejaVuSans-72" d="M 2631 2963 
Q 2534 3019 2420 3045 
Q 2306 3072 2169 3072 
Q 1681 3072 1420 2755 
Q 1159 2438 1159 1844 
L 1159 0 
L 581 0 
L 581 3500 
L 1159 3500 
L 1159 2956 
Q 1341 3275 1631 3429 
Q 1922 3584 2338 3584 
Q 2397 3584 2469 3576 
Q 2541 3569 2628 3553 
L 2631 2963 
z
" transform="scale(0.015625)"/>
       </defs>
       <use xlink:href="#DejaVuSans-54"/>
       <use xlink:href="#DejaVuSans-68" transform="translate(61.083984 0)"/>
       <use xlink:href="#DejaVuSans-75" transform="translate(124.462891 0)"/>
       <use xlink:href="#DejaVuSans-72" transform="translate(187.841797 0)"/>
       <use xlink:href="#DejaVuSans-73" transform="translate(228.955078 0)"/>
       <use xlink:href="#DejaVuSans-64" transform="translate(281.054688 0)"/>
       <use xlink:href="#DejaVuSans-61" transform="translate(344.53125 0)"/>
       <use xlink:href="#DejaVuSans-79" transform="translate(405.810547 0)"/>
      </g>
     </g>
    </g>
    <g id="xtick_5">
     <g id="line2d_9">
      <path d="M 279.382328 169.309709 
L 279.382328 25.44 
" clip-path="url(#p33dcbdf1f4)" style="fill: none; stroke: #b0b0b0; stroke-width: 0.8; stroke-linecap: square"/>
     </g>
     <g id="line2d_10">
      <g>
       <use xlink:href="#m529632cc28" x="279.382328" y="169.309709" style="stroke: #000000; stroke-width: 0.8"/>
      </g>
     </g>
     <g id="text_5">
      <!-- Friday -->
      <g transform="translate(265.719574 204.413416) rotate(-50) scale(0.1 -0.1)">
       <defs>
        <path id="DejaVuSans-46" d="M 628 4666 
L 3309 4666 
L 3309 4134 
L 1259 4134 
L 1259 2759 
L 3109 2759 
L 3109 2228 
L 1259 2228 
L 1259 0 
L 628 0 
L 628 4666 
z
" transform="scale(0.015625)"/>
        <path id="DejaVuSans-69" d="M 603 3500 
L 1178 3500 
L 1178 0 
L 603 0 
L 603 3500 
z
M 603 4863 
L 1178 4863 
L 1178 4134 
L 603 4134 
L 603 4863 
z
" transform="scale(0.015625)"/>
       </defs>
       <use xlink:href="#DejaVuSans-46"/>
       <use xlink:href="#DejaVuSans-72" transform="translate(50.269531 0)"/>
       <use xlink:href="#DejaVuSans-69" transform="translate(91.382812 0)"/>
       <use xlink:href="#DejaVuSans-64" transform="translate(119.166016 0)"/>
       <use xlink:href="#DejaVuSans-61" transform="translate(182.642578 0)"/>
       <use xlink:href="#DejaVuSans-79" transform="translate(243.921875 0)"/>
      </g>
     </g>
    </g>
    <g id="xtick_6">
     <g id="line2d_11">
      <path d="M 335.49791 169.309709 
L 335.49791 25.44 
" clip-path="url(#p33dcbdf1f4)" style="fill: none; stroke: #b0b0b0; stroke-width: 0.8; stroke-linecap: square"/>
     </g>
     <g id="line2d_12">
      <g>
       <use xlink:href="#m529632cc28" x="335.49791" y="169.309709" style="stroke: #000000; stroke-width: 0.8"/>
      </g>
     </g>
     <g id="text_6">
      <!-- Saturday -->
      <g transform="translate(312.351026 215.716162) rotate(-50) scale(0.1 -0.1)">
       <defs>
        <path id="DejaVuSans-53" d="M 3425 4513 
L 3425 3897 
Q 3066 4069 2747 4153 
Q 2428 4238 2131 4238 
Q 1616 4238 1336 4038 
Q 1056 3838 1056 3469 
Q 1056 3159 1242 3001 
Q 1428 2844 1947 2747 
L 2328 2669 
Q 3034 2534 3370 2195 
Q 3706 1856 3706 1288 
Q 3706 609 3251 259 
Q 2797 -91 1919 -91 
Q 1588 -91 1214 -16 
Q 841 59 441 206 
L 441 856 
Q 825 641 1194 531 
Q 1563 422 1919 422 
Q 2459 422 2753 634 
Q 3047 847 3047 1241 
Q 3047 1584 2836 1778 
Q 2625 1972 2144 2069 
L 1759 2144 
Q 1053 2284 737 2584 
Q 422 2884 422 3419 
Q 422 4038 858 4394 
Q 1294 4750 2059 4750 
Q 2388 4750 2728 4690 
Q 3069 4631 3425 4513 
z
" transform="scale(0.015625)"/>
        <path id="DejaVuSans-74" d="M 1172 4494 
L 1172 3500 
L 2356 3500 
L 2356 3053 
L 1172 3053 
L 1172 1153 
Q 1172 725 1289 603 
Q 1406 481 1766 481 
L 2356 481 
L 2356 0 
L 1766 0 
Q 1100 0 847 248 
Q 594 497 594 1153 
L 594 3053 
L 172 3053 
L 172 3500 
L 594 3500 
L 594 4494 
L 1172 4494 
z
" transform="scale(0.015625)"/>
       </defs>
       <use xlink:href="#DejaVuSans-53"/>
       <use xlink:href="#DejaVuSans-61" transform="translate(63.476562 0)"/>
       <use xlink:href="#DejaVuSans-74" transform="translate(124.755859 0)"/>
       <use xlink:href="#DejaVuSans-75" transform="translate(163.964844 0)"/>
       <use xlink:href="#DejaVuSans-72" transform="translate(227.34375 0)"/>
       <use xlink:href="#DejaVuSans-64" transform="translate(266.707031 0)"/>
       <use xlink:href="#DejaVuSans-61" transform="translate(330.183594 0)"/>
       <use xlink:href="#DejaVuSans-79" transform="translate(391.462891 0)"/>
      </g>
     </g>
    </g>
    <g id="xtick_7">
     <g id="line2d_13">
      <path d="M 391.613493 169.309709 
L 391.613493 25.44 
" clip-path="url(#p33dcbdf1f4)" style="fill: none; stroke: #b0b0b0; stroke-width: 0.8; stroke-linecap: square"/>
     </g>
     <g id="line2d_14">
      <g>
       <use xlink:href="#m529632cc28" x="391.613493" y="169.309709" style="stroke: #000000; stroke-width: 0.8"/>
      </g>
     </g>
     <g id="text_7">
      <!-- Sunday -->
      <g transform="translate(373.381924 209.858316) rotate(-50) scale(0.1 -0.1)">
       <use xlink:href="#DejaVuSans-53"/>
       <use xlink:href="#DejaVuSans-75" transform="translate(63.476562 0)"/>
       <use xlink:href="#DejaVuSans-6e" transform="translate(126.855469 0)"/>
       <use xlink:href="#DejaVuSans-64" transform="translate(190.234375 0)"/>
       <use xlink:href="#DejaVuSans-61" transform="translate(253.710938 0)"/>
       <use xlink:href="#DejaVuSans-79" transform="translate(314.990234 0)"/>
      </g>
     </g>
    </g>
    <g id="xtick_8">
     <g id="line2d_15">
      <defs>
       <path id="ma626780be6" d="M 0 0 
L 0 2 
" style="stroke: #000000; stroke-width: 0.6"/>
      </defs>
      <g>
       <use xlink:href="#ma626780be6" x="68.948896" y="169.309709" style="stroke: #000000; stroke-width: 0.6"/>
      </g>
     </g>
    </g>
    <g id="xtick_9">
     <g id="line2d_16">
      <g>
       <use xlink:href="#ma626780be6" x="82.977791" y="169.309709" style="stroke: #000000; stroke-width: 0.6"/>
      </g>
     </g>
    </g>
    <g id="xtick_10">
     <g id="line2d_17">
      <g>
       <use xlink:href="#ma626780be6" x="97.006687" y="169.309709" style="stroke: #000000; stroke-width: 0.6"/>
      </g>
     </g>
    </g>
    <g id="xtick_11">
     <g id="line2d_18">
      <g>
       <use xlink:href="#ma626780be6" x="125.064478" y="169.309709" style="stroke: #000000; stroke-width: 0.6"/>
      </g>
     </g>
    </g>
    <g id="xtick_12">
     <g id="line2d_19">
      <g>
       <use xlink:href="#ma626780be6" x="139.093373" y="169.309709" style="stroke: #000000; stroke-width: 0.6"/>
      </g>
     </g>
    </g>
    <g id="xtick_13">
     <g id="line2d_20">
      <g>
       <use xlink:href="#ma626780be6" x="153.122269" y="169.309709" style="stroke: #000000; stroke-width: 0.6"/>
      </g>
     </g>
    </g>
    <g id="xtick_14">
     <g id="line2d_21">
      <g>
       <use xlink:href="#ma626780be6" x="181.18006" y="169.309709" style="stroke: #000000; stroke-width: 0.6"/>
      </g>
     </g>
    </g>
    <g id="xtick_15">
     <g id="line2d_22">
      <g>
       <use xlink:href="#ma626780be6" x="195.208955" y="169.309709" style="stroke: #000000; stroke-width: 0.6"/>
      </g>
     </g>
    </g>
    <g id="xtick_16">
     <g id="line2d_23">
      <g>
       <use xlink:href="#ma626780be6" x="209.237851" y="169.309709" style="stroke: #000000; stroke-width: 0.6"/>
      </g>
     </g>
    </g>
    <g id="xtick_17">
     <g id="line2d_24">
      <g>
       <use xlink:href="#ma626780be6" x="237.295642" y="169.309709" style="stroke: #000000; stroke-width: 0.6"/>
      </g>
     </g>
    </g>
    <g id="xtick_18">
     <g id="line2d_25">
      <g>
       <use xlink:href="#ma626780be6" x="251.324537" y="169.309709" style="stroke: #000000; stroke-width: 0.6"/>
      </g>
     </g>
    </g>
    <g id="xtick_19">
     <g id="line2d_26">
      <g>
       <use xlink:href="#ma626780be6" x="265.353433" y="169.309709" style="stroke: #000000; stroke-width: 0.6"/>
      </g>
     </g>
    </g>
    <g id="xtick_20">
     <g id="line2d_27">
      <g>
       <use xlink:href="#ma626780be6" x="293.411224" y="169.309709" style="stroke: #000000; stroke-width: 0.6"/>
      </g>
     </g>
    </g>
    <g id="xtick_21">
     <g id="line2d_28">
      <g>
       <use xlink:href="#ma626780be6" x="307.440119" y="169.309709" style="stroke: #000000; stroke-width: 0.6"/>
      </g>
     </g>
    </g>
    <g id="xtick_22">
     <g id="line2d_29">
      <g>
       <use xlink:href="#ma626780be6" x="321.469015" y="169.309709" style="stroke: #000000; stroke-width: 0.6"/>
      </g>
     </g>
    </g>
    <g id="xtick_23">
     <g id="line2d_30">
      <g>
       <use xlink:href="#ma626780be6" x="349.526806" y="169.309709" style="stroke: #000000; stroke-width: 0.6"/>
      </g>
     </g>
    </g>
    <g id="xtick_24">
     <g id="line2d_31">
      <g>
       <use xlink:href="#ma626780be6" x="363.555701" y="169.309709" style="stroke: #000000; stroke-width: 0.6"/>
      </g>
     </g>
    </g>
    <g id="xtick_25">
     <g id="line2d_32">
      <g>
       <use xlink:href="#ma626780be6" x="377.584597" y="169.309709" style="stroke: #000000; stroke-width: 0.6"/>
      </g>
     </g>
    </g>
    <g id="xtick_26">
     <g id="line2d_33">
      <g>
       <use xlink:href="#ma626780be6" x="405.642388" y="169.309709" style="stroke: #000000; stroke-width: 0.6"/>
      </g>
     </g>
    </g>
    <g id="xtick_27">
     <g id="line2d_34">
      <g>
       <use xlink:href="#ma626780be6" x="419.671284" y="169.309709" style="stroke: #000000; stroke-width: 0.6"/>
      </g>
     </g>
    </g>
    <g id="xtick_28">
     <g id="line2d_35">
      <g>
       <use xlink:href="#ma626780be6" x="433.700179" y="169.309709" style="stroke: #000000; stroke-width: 0.6"/>
      </g>
     </g>
    </g>
    <g id="text_8">
     <!-- Pickup Datetime -->
     <g transform="translate(209.781406 238.480705) scale(0.1 -0.1)">
      <defs>
       <path id="DejaVuSans-50" d="M 1259 4147 
L 1259 2394 
L 2053 2394 
Q 2494 2394 2734 2622 
Q 2975 2850 2975 3272 
Q 2975 3691 2734 3919 
Q 2494 4147 2053 4147 
L 1259 4147 
z
M 628 4666 
L 2053 4666 
Q 2838 4666 3239 4311 
Q 3641 3956 3641 3272 
Q 3641 2581 3239 2228 
Q 2838 1875 2053 1875 
L 1259 1875 
L 1259 0 
L 628 0 
L 628 4666 
z
" transform="scale(0.015625)"/>
       <path id="DejaVuSans-63" d="M 3122 3366 
L 3122 2828 
Q 2878 2963 2633 3030 
Q 2388 3097 2138 3097 
Q 1578 3097 1268 2742 
Q 959 2388 959 1747 
Q 959 1106 1268 751 
Q 1578 397 2138 397 
Q 2388 397 2633 464 
Q 2878 531 3122 666 
L 3122 134 
Q 2881 22 2623 -34 
Q 2366 -91 2075 -91 
Q 1284 -91 818 406 
Q 353 903 353 1747 
Q 353 2603 823 3093 
Q 1294 3584 2113 3584 
Q 2378 3584 2631 3529 
Q 2884 3475 3122 3366 
z
" transform="scale(0.015625)"/>
       <path id="DejaVuSans-6b" d="M 581 4863 
L 1159 4863 
L 1159 1991 
L 2875 3500 
L 3609 3500 
L 1753 1863 
L 3688 0 
L 2938 0 
L 1159 1709 
L 1159 0 
L 581 0 
L 581 4863 
z
" transform="scale(0.015625)"/>
       <path id="DejaVuSans-70" d="M 1159 525 
L 1159 -1331 
L 581 -1331 
L 581 3500 
L 1159 3500 
L 1159 2969 
Q 1341 3281 1617 3432 
Q 1894 3584 2278 3584 
Q 2916 3584 3314 3078 
Q 3713 2572 3713 1747 
Q 3713 922 3314 415 
Q 2916 -91 2278 -91 
Q 1894 -91 1617 61 
Q 1341 213 1159 525 
z
M 3116 1747 
Q 3116 2381 2855 2742 
Q 2594 3103 2138 3103 
Q 1681 3103 1420 2742 
Q 1159 2381 1159 1747 
Q 1159 1113 1420 752 
Q 1681 391 2138 391 
Q 2594 391 2855 752 
Q 3116 1113 3116 1747 
z
" transform="scale(0.015625)"/>
       <path id="DejaVuSans-20" transform="scale(0.015625)"/>
       <path id="DejaVuSans-44" d="M 1259 4147 
L 1259 519 
L 2022 519 
Q 2988 519 3436 956 
Q 3884 1394 3884 2338 
Q 3884 3275 3436 3711 
Q 2988 4147 2022 4147 
L 1259 4147 
z
M 628 4666 
L 1925 4666 
Q 3281 4666 3915 4102 
Q 4550 3538 4550 2338 
Q 4550 1131 3912 565 
Q 3275 0 1925 0 
L 628 0 
L 628 4666 
z
" transform="scale(0.015625)"/>
       <path id="DejaVuSans-6d" d="M 3328 2828 
Q 3544 3216 3844 3400 
Q 4144 3584 4550 3584 
Q 5097 3584 5394 3201 
Q 5691 2819 5691 2113 
L 5691 0 
L 5113 0 
L 5113 2094 
Q 5113 2597 4934 2840 
Q 4756 3084 4391 3084 
Q 3944 3084 3684 2787 
Q 3425 2491 3425 1978 
L 3425 0 
L 2847 0 
L 2847 2094 
Q 2847 2600 2669 2842 
Q 2491 3084 2119 3084 
Q 1678 3084 1418 2786 
Q 1159 2488 1159 1978 
L 1159 0 
L 581 0 
L 581 3500 
L 1159 3500 
L 1159 2956 
Q 1356 3278 1631 3431 
Q 1906 3584 2284 3584 
Q 2666 3584 2933 3390 
Q 3200 3197 3328 2828 
z
" transform="scale(0.015625)"/>
      </defs>
      <use xlink:href="#DejaVuSans-50"/>
      <use xlink:href="#DejaVuSans-69" transform="translate(58.052734 0)"/>
      <use xlink:href="#DejaVuSans-63" transform="translate(85.835938 0)"/>
      <use xlink:href="#DejaVuSans-6b" transform="translate(140.816406 0)"/>
      <use xlink:href="#DejaVuSans-75" transform="translate(195.601562 0)"/>
      <use xlink:href="#DejaVuSans-70" transform="translate(258.980469 0)"/>
      <use xlink:href="#DejaVuSans-20" transform="translate(322.457031 0)"/>
      <use xlink:href="#DejaVuSans-44" transform="translate(354.244141 0)"/>
      <use xlink:href="#DejaVuSans-61" transform="translate(431.246094 0)"/>
      <use xlink:href="#DejaVuSans-74" transform="translate(492.525391 0)"/>
      <use xlink:href="#DejaVuSans-65" transform="translate(531.734375 0)"/>
      <use xlink:href="#DejaVuSans-74" transform="translate(593.257812 0)"/>
      <use xlink:href="#DejaVuSans-69" transform="translate(632.466797 0)"/>
      <use xlink:href="#DejaVuSans-6d" transform="translate(660.25 0)"/>
      <use xlink:href="#DejaVuSans-65" transform="translate(757.662109 0)"/>
     </g>
    </g>
   </g>
   <g id="matplotlib.axis_2">
    <g id="ytick_1">
     <g id="line2d_36">
      <defs>
       <path id="mf250d87194" d="M 0 0 
L -3.5 0 
" style="stroke: #000000; stroke-width: 0.8"/>
      </defs>
      <g>
       <use xlink:href="#mf250d87194" x="54.92" y="154.5669" style="stroke: #000000; stroke-width: 0.8"/>
      </g>
     </g>
     <g id="text_9">
      <!-- 0.28 -->
      <g transform="translate(25.654375 158.366119) scale(0.1 -0.1)">
       <defs>
        <path id="DejaVuSans-30" d="M 2034 4250 
Q 1547 4250 1301 3770 
Q 1056 3291 1056 2328 
Q 1056 1369 1301 889 
Q 1547 409 2034 409 
Q 2525 409 2770 889 
Q 3016 1369 3016 2328 
Q 3016 3291 2770 3770 
Q 2525 4250 2034 4250 
z
M 2034 4750 
Q 2819 4750 3233 4129 
Q 3647 3509 3647 2328 
Q 3647 1150 3233 529 
Q 2819 -91 2034 -91 
Q 1250 -91 836 529 
Q 422 1150 422 2328 
Q 422 3509 836 4129 
Q 1250 4750 2034 4750 
z
" transform="scale(0.015625)"/>
        <path id="DejaVuSans-2e" d="M 684 794 
L 1344 794 
L 1344 0 
L 684 0 
L 684 794 
z
" transform="scale(0.015625)"/>
        <path id="DejaVuSans-32" d="M 1228 531 
L 3431 531 
L 3431 0 
L 469 0 
L 469 531 
Q 828 903 1448 1529 
Q 2069 2156 2228 2338 
Q 2531 2678 2651 2914 
Q 2772 3150 2772 3378 
Q 2772 3750 2511 3984 
Q 2250 4219 1831 4219 
Q 1534 4219 1204 4116 
Q 875 4013 500 3803 
L 500 4441 
Q 881 4594 1212 4672 
Q 1544 4750 1819 4750 
Q 2544 4750 2975 4387 
Q 3406 4025 3406 3419 
Q 3406 3131 3298 2873 
Q 3191 2616 2906 2266 
Q 2828 2175 2409 1742 
Q 1991 1309 1228 531 
z
" transform="scale(0.015625)"/>
        <path id="DejaVuSans-38" d="M 2034 2216 
Q 1584 2216 1326 1975 
Q 1069 1734 1069 1313 
Q 1069 891 1326 650 
Q 1584 409 2034 409 
Q 2484 409 2743 651 
Q 3003 894 3003 1313 
Q 3003 1734 2745 1975 
Q 2488 2216 2034 2216 
z
M 1403 2484 
Q 997 2584 770 2862 
Q 544 3141 544 3541 
Q 544 4100 942 4425 
Q 1341 4750 2034 4750 
Q 2731 4750 3128 4425 
Q 3525 4100 3525 3541 
Q 3525 3141 3298 2862 
Q 3072 2584 2669 2484 
Q 3125 2378 3379 2068 
Q 3634 1759 3634 1313 
Q 3634 634 3220 271 
Q 2806 -91 2034 -91 
Q 1263 -91 848 271 
Q 434 634 434 1313 
Q 434 1759 690 2068 
Q 947 2378 1403 2484 
z
M 1172 3481 
Q 1172 3119 1398 2916 
Q 1625 2713 2034 2713 
Q 2441 2713 2670 2916 
Q 2900 3119 2900 3481 
Q 2900 3844 2670 4047 
Q 2441 4250 2034 4250 
Q 1625 4250 1398 4047 
Q 1172 3844 1172 3481 
z
" transform="scale(0.015625)"/>
       </defs>
       <use xlink:href="#DejaVuSans-30"/>
       <use xlink:href="#DejaVuSans-2e" transform="translate(63.623047 0)"/>
       <use xlink:href="#DejaVuSans-32" transform="translate(95.410156 0)"/>
       <use xlink:href="#DejaVuSans-38" transform="translate(159.033203 0)"/>
      </g>
     </g>
    </g>
    <g id="ytick_2">
     <g id="line2d_37">
      <g>
       <use xlink:href="#mf250d87194" x="54.92" y="126.914844" style="stroke: #000000; stroke-width: 0.8"/>
      </g>
     </g>
     <g id="text_10">
      <!-- 0.30 -->
      <g transform="translate(25.654375 130.714063) scale(0.1 -0.1)">
       <defs>
        <path id="DejaVuSans-33" d="M 2597 2516 
Q 3050 2419 3304 2112 
Q 3559 1806 3559 1356 
Q 3559 666 3084 287 
Q 2609 -91 1734 -91 
Q 1441 -91 1130 -33 
Q 819 25 488 141 
L 488 750 
Q 750 597 1062 519 
Q 1375 441 1716 441 
Q 2309 441 2620 675 
Q 2931 909 2931 1356 
Q 2931 1769 2642 2001 
Q 2353 2234 1838 2234 
L 1294 2234 
L 1294 2753 
L 1863 2753 
Q 2328 2753 2575 2939 
Q 2822 3125 2822 3475 
Q 2822 3834 2567 4026 
Q 2313 4219 1838 4219 
Q 1578 4219 1281 4162 
Q 984 4106 628 3988 
L 628 4550 
Q 988 4650 1302 4700 
Q 1616 4750 1894 4750 
Q 2613 4750 3031 4423 
Q 3450 4097 3450 3541 
Q 3450 3153 3228 2886 
Q 3006 2619 2597 2516 
z
" transform="scale(0.015625)"/>
       </defs>
       <use xlink:href="#DejaVuSans-30"/>
       <use xlink:href="#DejaVuSans-2e" transform="translate(63.623047 0)"/>
       <use xlink:href="#DejaVuSans-33" transform="translate(95.410156 0)"/>
       <use xlink:href="#DejaVuSans-30" transform="translate(159.033203 0)"/>
      </g>
     </g>
    </g>
    <g id="ytick_3">
     <g id="line2d_38">
      <g>
       <use xlink:href="#mf250d87194" x="54.92" y="99.262787" style="stroke: #000000; stroke-width: 0.8"/>
      </g>
     </g>
     <g id="text_11">
      <!-- 0.32 -->
      <g transform="translate(25.654375 103.062006) scale(0.1 -0.1)">
       <use xlink:href="#DejaVuSans-30"/>
       <use xlink:href="#DejaVuSans-2e" transform="translate(63.623047 0)"/>
       <use xlink:href="#DejaVuSans-33" transform="translate(95.410156 0)"/>
       <use xlink:href="#DejaVuSans-32" transform="translate(159.033203 0)"/>
      </g>
     </g>
    </g>
    <g id="ytick_4">
     <g id="line2d_39">
      <g>
       <use xlink:href="#mf250d87194" x="54.92" y="71.610731" style="stroke: #000000; stroke-width: 0.8"/>
      </g>
     </g>
     <g id="text_12">
      <!-- 0.34 -->
      <g transform="translate(25.654375 75.40995) scale(0.1 -0.1)">
       <defs>
        <path id="DejaVuSans-34" d="M 2419 4116 
L 825 1625 
L 2419 1625 
L 2419 4116 
z
M 2253 4666 
L 3047 4666 
L 3047 1625 
L 3713 1625 
L 3713 1100 
L 3047 1100 
L 3047 0 
L 2419 0 
L 2419 1100 
L 313 1100 
L 313 1709 
L 2253 4666 
z
" transform="scale(0.015625)"/>
       </defs>
       <use xlink:href="#DejaVuSans-30"/>
       <use xlink:href="#DejaVuSans-2e" transform="translate(63.623047 0)"/>
       <use xlink:href="#DejaVuSans-33" transform="translate(95.410156 0)"/>
       <use xlink:href="#DejaVuSans-34" transform="translate(159.033203 0)"/>
      </g>
     </g>
    </g>
    <g id="ytick_5">
     <g id="line2d_40">
      <g>
       <use xlink:href="#mf250d87194" x="54.92" y="43.958674" style="stroke: #000000; stroke-width: 0.8"/>
      </g>
     </g>
     <g id="text_13">
      <!-- 0.36 -->
      <g transform="translate(25.654375 47.757893) scale(0.1 -0.1)">
       <defs>
        <path id="DejaVuSans-36" d="M 2113 2584 
Q 1688 2584 1439 2293 
Q 1191 2003 1191 1497 
Q 1191 994 1439 701 
Q 1688 409 2113 409 
Q 2538 409 2786 701 
Q 3034 994 3034 1497 
Q 3034 2003 2786 2293 
Q 2538 2584 2113 2584 
z
M 3366 4563 
L 3366 3988 
Q 3128 4100 2886 4159 
Q 2644 4219 2406 4219 
Q 1781 4219 1451 3797 
Q 1122 3375 1075 2522 
Q 1259 2794 1537 2939 
Q 1816 3084 2150 3084 
Q 2853 3084 3261 2657 
Q 3669 2231 3669 1497 
Q 3669 778 3244 343 
Q 2819 -91 2113 -91 
Q 1303 -91 875 529 
Q 447 1150 447 2328 
Q 447 3434 972 4092 
Q 1497 4750 2381 4750 
Q 2619 4750 2861 4703 
Q 3103 4656 3366 4563 
z
" transform="scale(0.015625)"/>
       </defs>
       <use xlink:href="#DejaVuSans-30"/>
       <use xlink:href="#DejaVuSans-2e" transform="translate(63.623047 0)"/>
       <use xlink:href="#DejaVuSans-33" transform="translate(95.410156 0)"/>
       <use xlink:href="#DejaVuSans-36" transform="translate(159.033203 0)"/>
      </g>
     </g>
    </g>
    <g id="text_14">
     <!-- $E/\alpha$ -->
     <g transform="translate(19.574688 105.524854) rotate(-90) scale(0.1 -0.1)">
      <defs>
       <path id="DejaVuSans-Oblique-45" d="M 1081 4666 
L 4031 4666 
L 3928 4134 
L 1606 4134 
L 1338 2753 
L 3566 2753 
L 3463 2222 
L 1234 2222 
L 909 531 
L 3284 531 
L 3181 0 
L 172 0 
L 1081 4666 
z
" transform="scale(0.015625)"/>
       <path id="DejaVuSans-2f" d="M 1625 4666 
L 2156 4666 
L 531 -594 
L 0 -594 
L 1625 4666 
z
" transform="scale(0.015625)"/>
       <path id="DejaVuSans-Oblique-3b1" d="M 2619 1628 
L 2622 2350 
Q 2625 3088 2069 3091 
Q 1653 3094 1394 2747 
Q 1069 2319 959 1747 
Q 825 1059 994 731 
Q 1169 397 1547 397 
Q 1966 397 2319 1063 
L 2619 1628 
z
M 2166 3578 
Q 3141 3594 3128 2584 
Q 3128 2584 3616 3500 
L 4128 3500 
L 3119 1603 
L 3109 919 
Q 3109 766 3194 638 
Q 3291 488 3391 488 
L 3669 488 
L 3575 0 
L 3228 0 
Q 2934 0 2722 263 
Q 2622 394 2619 669 
Q 2416 334 2066 50 
Q 1900 -81 1453 -78 
Q 722 -72 456 397 
Q 184 884 353 1747 
Q 534 2675 1009 3097 
Q 1544 3569 2166 3578 
z
" transform="scale(0.015625)"/>
      </defs>
      <use xlink:href="#DejaVuSans-Oblique-45" transform="translate(0 0.09375)"/>
      <use xlink:href="#DejaVuSans-2f" transform="translate(63.183594 0.09375)"/>
      <use xlink:href="#DejaVuSans-Oblique-3b1" transform="translate(96.875 0.09375)"/>
     </g>
    </g>
   </g>
   <g id="line2d_41">
    <path d="M 54.92 126.023084 
L 56.089075 143.215701 
L 57.258149 147.757099 
L 58.427224 141.947294 
L 59.596299 140.102369 
L 60.765373 126.151066 
L 61.934448 110.305812 
L 63.103522 111.30639 
L 64.272597 111.0568 
L 65.441672 116.632475 
L 66.610746 130.898083 
L 67.779821 141.921616 
L 68.948896 146.958453 
L 70.11797 147.72877 
L 71.287045 142.501419 
L 72.456119 140.438392 
L 73.625194 141.059726 
L 74.794269 145.827827 
L 75.963343 146.755808 
L 77.132418 144.531873 
L 78.301493 148.039417 
L 79.470567 149.869864 
L 80.639642 152.338223 
L 81.808716 142.907563 
L 82.977791 125.225045 
L 84.146866 112.528794 
L 85.31594 103.69189 
L 86.485015 96.976253 
L 87.65409 98.076606 
L 88.823164 93.331266 
L 89.992239 91.86545 
L 91.161313 104.568568 
L 93.499463 114.693527 
L 94.668537 118.243247 
L 95.837612 110.060947 
L 97.006687 107.323488 
L 98.175761 102.707115 
L 99.344836 101.981603 
L 100.51391 101.010441 
L 101.682985 106.56212 
L 102.85206 120.425747 
L 104.021134 126.998364 
L 105.190209 136.799996 
L 106.359284 140.403512 
L 107.528358 134.166979 
L 108.697433 133.969985 
L 109.866507 135.460564 
L 111.035582 135.923859 
L 112.204657 133.671108 
L 113.373731 129.008884 
L 114.542806 122.319763 
L 115.711881 126.568622 
L 116.880955 124.258368 
L 118.05003 118.064996 
L 119.219104 111.032786 
L 120.388179 96.594582 
L 121.557254 108.093801 
L 123.895403 152.988288 
L 125.064478 159.77042 
L 126.233552 157.255573 
L 128.571701 140.940732 
L 129.740776 146.171051 
L 130.909851 150.089546 
L 132.078925 150.100368 
L 133.248 146.676735 
L 134.417075 140.001237 
L 135.586149 132.055679 
L 136.755224 119.94926 
L 137.924299 104.069656 
L 139.093373 91.370363 
L 140.262448 68.484477 
L 141.431522 62.574988 
L 142.600597 67.953575 
L 143.769672 70.166229 
L 144.938746 88.706597 
L 146.107821 94.55485 
L 147.276896 95.90344 
L 148.44597 104.369201 
L 149.615045 103.3245 
L 150.784119 105.920003 
L 154.291343 116.353775 
L 155.460418 122.362966 
L 156.629493 124.0393 
L 157.798567 119.203038 
L 158.967642 126.622922 
L 160.136716 122.791249 
L 161.305791 125.295977 
L 162.474866 133.9513 
L 163.64394 131.819211 
L 164.813015 136.475096 
L 165.98209 137.911741 
L 167.151164 132.108662 
L 168.320239 127.192708 
L 169.489313 119.514429 
L 170.658388 110.881056 
L 171.827463 108.730358 
L 172.996537 105.052628 
L 174.165612 90.987789 
L 175.334687 86.789245 
L 176.503761 99.343189 
L 177.672836 103.078904 
L 180.010985 150.13053 
L 181.18006 142.211537 
L 182.349134 148.00361 
L 183.518209 153.117087 
L 184.687284 151.637051 
L 185.856358 160.714171 
L 187.025433 162.770177 
L 188.194507 160.450247 
L 189.363582 138.006651 
L 190.532657 119.988139 
L 191.701731 113.495773 
L 192.870806 100.721724 
L 194.039881 107.375769 
L 195.208955 109.53237 
L 197.547104 89.909976 
L 198.716179 72.934093 
L 199.885254 74.032475 
L 201.054328 74.878508 
L 202.223403 83.15284 
L 203.392478 101.308247 
L 204.561552 108.469769 
L 205.730627 113.320308 
L 206.899701 115.603582 
L 208.068776 110.196655 
L 209.237851 98.382195 
L 210.406925 103.966681 
L 211.576 105.308423 
L 213.914149 133.752637 
L 215.083224 138.811953 
L 216.252299 140.690771 
L 217.421373 128.337571 
L 218.590448 124.31193 
L 219.759522 116.306561 
L 220.928597 116.538484 
L 222.097672 120.380209 
L 223.266746 121.216498 
L 224.435821 126.869005 
L 225.604896 123.446608 
L 226.77397 117.918642 
L 227.943045 101.017094 
L 229.112119 86.716812 
L 230.281194 81.711292 
L 231.450269 68.242102 
L 232.619343 59.627781 
L 233.788418 60.427067 
L 234.957493 73.250407 
L 236.126567 107.042434 
L 237.295642 128.013567 
L 238.464716 142.400615 
L 239.633791 151.86801 
L 240.802866 149.850521 
L 241.97194 159.565485 
L 243.141015 161.415814 
L 244.31009 161.645351 
L 245.479164 149.071811 
L 246.648239 130.795119 
L 247.817313 118.789309 
L 248.986388 96.651141 
L 250.155463 81.098496 
L 251.324537 80.538212 
L 252.493612 77.514222 
L 253.662687 75.857864 
L 254.831761 82.208728 
L 256.000836 87.165361 
L 257.16991 81.314362 
L 258.338985 82.027192 
L 260.677134 93.375196 
L 261.846209 106.59629 
L 263.015284 100.50168 
L 264.184358 101.341658 
L 265.353433 100.158345 
L 266.522507 105.159515 
L 267.691582 120.60166 
L 268.860657 123.198554 
L 270.029731 132.33958 
L 271.198806 130.914452 
L 272.367881 132.24532 
L 273.536955 141.386388 
L 274.70603 137.405279 
L 275.875104 132.350125 
L 277.044179 131.940182 
L 278.213254 120.262194 
L 279.382328 111.228512 
L 280.551403 110.936431 
L 281.720478 104.459759 
L 282.889552 100.707637 
L 284.058627 93.893717 
L 285.227701 85.635144 
L 286.396776 88.195855 
L 287.565851 81.948956 
L 288.734925 84.041628 
L 289.904 93.966972 
L 291.073075 102.393878 
L 292.242149 113.953801 
L 293.411224 130.160535 
L 294.580299 141.799581 
L 295.749373 146.232259 
L 296.918448 153.616468 
L 298.087522 159.42532 
L 299.256597 149.161325 
L 300.425672 141.815656 
L 302.763821 113.692347 
L 303.932896 109.191978 
L 305.10197 96.889278 
L 306.271045 92.296593 
L 307.440119 85.149172 
L 308.609194 72.106644 
L 309.778269 60.732459 
L 310.947343 60.595934 
L 312.116418 47.525293 
L 313.285493 44.582276 
L 314.454567 54.835769 
L 315.623642 58.070836 
L 316.792716 74.279651 
L 317.961791 85.340434 
L 319.130866 91.208714 
L 320.29994 93.057495 
L 321.469015 88.327644 
L 322.63809 94.128964 
L 323.807164 92.690753 
L 324.976239 96.842547 
L 326.145313 106.026474 
L 329.652537 117.202012 
L 330.821612 116.353476 
L 331.990687 110.713147 
L 333.159761 109.157726 
L 334.328836 106.381199 
L 335.49791 106.359525 
L 336.666985 102.407605 
L 339.005134 86.354603 
L 341.343284 74.614594 
L 342.512358 78.417385 
L 343.681433 89.942778 
L 344.850507 94.897971 
L 346.019582 100.481323 
L 347.188657 99.002689 
L 349.526806 80.5225 
L 351.864955 107.572046 
L 353.03403 111.874889 
L 354.203104 120.714679 
L 355.372179 112.042237 
L 356.541254 106.558682 
L 357.710328 98.067173 
L 358.879403 86.198487 
L 360.048478 78.640195 
L 361.217552 68.135593 
L 362.386627 67.068804 
L 363.555701 75.977451 
L 365.893851 68.384034 
L 367.062925 54.349817 
L 368.232 38.745345 
L 369.401075 34.913644 
L 370.570149 31.979532 
L 371.739224 46.909963 
L 372.908299 52.731696 
L 374.077373 51.765725 
L 375.246448 61.993613 
L 376.415522 66.610711 
L 377.584597 68.207304 
L 378.753672 71.005931 
L 379.922746 64.227952 
L 381.091821 63.254338 
L 382.260896 68.660756 
L 383.42997 67.13234 
L 384.599045 71.003926 
L 386.937194 64.665033 
L 388.106269 66.775903 
L 389.275343 62.063024 
L 390.444418 58.876091 
L 391.613493 56.4235 
L 395.120716 69.449598 
L 396.289791 74.041501 
L 397.458866 77.252966 
L 400.96609 77.859845 
L 402.135164 68.107353 
L 403.304239 72.394856 
L 404.473313 79.013597 
L 405.642388 70.133637 
L 406.811463 92.519186 
L 407.980537 98.713359 
L 409.149612 94.34609 
L 410.318687 98.665509 
L 411.487761 84.016469 
L 412.656836 82.767241 
L 413.82591 65.464573 
L 414.994985 66.958449 
L 416.16406 63.136824 
L 417.333134 56.35744 
L 418.502209 68.809129 
L 419.671284 68.550824 
L 420.840358 71.108781 
L 422.009433 61.350363 
L 423.178507 62.384383 
L 424.347582 71.62256 
L 425.516657 77.149991 
L 426.685731 87.895879 
L 427.854806 88.050325 
L 429.023881 77.185694 
L 430.192955 76.02217 
L 431.36203 67.125403 
L 432.531104 55.434692 
L 433.700179 54.561665 
L 434.869254 57.468824 
L 437.207403 78.624645 
L 438.376478 91.407706 
L 439.545552 93.521834 
L 440.714627 96.697908 
L 441.883701 101.53387 
L 443.052776 104.14573 
L 444.221851 107.088649 
L 445.390925 112.114806 
L 446.56 124.238079 
L 446.56 124.238079 
" clip-path="url(#p33dcbdf1f4)" style="fill: none; stroke: #ff7f0e; stroke-width: 1.5; stroke-linecap: square"/>
   </g>
   <g id="patch_3">
    <path d="M 54.92 169.309709 
L 54.92 25.44 
" style="fill: none; stroke: #000000; stroke-width: 0.8; stroke-linejoin: miter; stroke-linecap: square"/>
   </g>
   <g id="patch_4">
    <path d="M 446.56 169.309709 
L 446.56 25.44 
" style="fill: none; stroke: #000000; stroke-width: 0.8; stroke-linejoin: miter; stroke-linecap: square"/>
   </g>
   <g id="patch_5">
    <path d="M 54.92 169.309709 
L 446.56 169.309709 
" style="fill: none; stroke: #000000; stroke-width: 0.8; stroke-linejoin: miter; stroke-linecap: square"/>
   </g>
   <g id="patch_6">
    <path d="M 54.92 25.44 
L 446.56 25.44 
" style="fill: none; stroke: #000000; stroke-width: 0.8; stroke-linejoin: miter; stroke-linecap: square"/>
   </g>
   <g id="text_15">
    <!-- Outer Boroughs: Efficiency vs. Demand -->
    <g transform="translate(132.703125 19.44) scale(0.12 -0.12)">
     <defs>
      <path id="DejaVuSans-4f" d="M 2522 4238 
Q 1834 4238 1429 3725 
Q 1025 3213 1025 2328 
Q 1025 1447 1429 934 
Q 1834 422 2522 422 
Q 3209 422 3611 934 
Q 4013 1447 4013 2328 
Q 4013 3213 3611 3725 
Q 3209 4238 2522 4238 
z
M 2522 4750 
Q 3503 4750 4090 4092 
Q 4678 3434 4678 2328 
Q 4678 1225 4090 567 
Q 3503 -91 2522 -91 
Q 1538 -91 948 565 
Q 359 1222 359 2328 
Q 359 3434 948 4092 
Q 1538 4750 2522 4750 
z
" transform="scale(0.015625)"/>
      <path id="DejaVuSans-42" d="M 1259 2228 
L 1259 519 
L 2272 519 
Q 2781 519 3026 730 
Q 3272 941 3272 1375 
Q 3272 1813 3026 2020 
Q 2781 2228 2272 2228 
L 1259 2228 
z
M 1259 4147 
L 1259 2741 
L 2194 2741 
Q 2656 2741 2882 2914 
Q 3109 3088 3109 3444 
Q 3109 3797 2882 3972 
Q 2656 4147 2194 4147 
L 1259 4147 
z
M 628 4666 
L 2241 4666 
Q 2963 4666 3353 4366 
Q 3744 4066 3744 3513 
Q 3744 3084 3544 2831 
Q 3344 2578 2956 2516 
Q 3422 2416 3680 2098 
Q 3938 1781 3938 1306 
Q 3938 681 3513 340 
Q 3088 0 2303 0 
L 628 0 
L 628 4666 
z
" transform="scale(0.015625)"/>
      <path id="DejaVuSans-67" d="M 2906 1791 
Q 2906 2416 2648 2759 
Q 2391 3103 1925 3103 
Q 1463 3103 1205 2759 
Q 947 2416 947 1791 
Q 947 1169 1205 825 
Q 1463 481 1925 481 
Q 2391 481 2648 825 
Q 2906 1169 2906 1791 
z
M 3481 434 
Q 3481 -459 3084 -895 
Q 2688 -1331 1869 -1331 
Q 1566 -1331 1297 -1286 
Q 1028 -1241 775 -1147 
L 775 -588 
Q 1028 -725 1275 -790 
Q 1522 -856 1778 -856 
Q 2344 -856 2625 -561 
Q 2906 -266 2906 331 
L 2906 616 
Q 2728 306 2450 153 
Q 2172 0 1784 0 
Q 1141 0 747 490 
Q 353 981 353 1791 
Q 353 2603 747 3093 
Q 1141 3584 1784 3584 
Q 2172 3584 2450 3431 
Q 2728 3278 2906 2969 
L 2906 3500 
L 3481 3500 
L 3481 434 
z
" transform="scale(0.015625)"/>
      <path id="DejaVuSans-3a" d="M 750 794 
L 1409 794 
L 1409 0 
L 750 0 
L 750 794 
z
M 750 3309 
L 1409 3309 
L 1409 2516 
L 750 2516 
L 750 3309 
z
" transform="scale(0.015625)"/>
      <path id="DejaVuSans-45" d="M 628 4666 
L 3578 4666 
L 3578 4134 
L 1259 4134 
L 1259 2753 
L 3481 2753 
L 3481 2222 
L 1259 2222 
L 1259 531 
L 3634 531 
L 3634 0 
L 628 0 
L 628 4666 
z
" transform="scale(0.015625)"/>
      <path id="DejaVuSans-66" d="M 2375 4863 
L 2375 4384 
L 1825 4384 
Q 1516 4384 1395 4259 
Q 1275 4134 1275 3809 
L 1275 3500 
L 2222 3500 
L 2222 3053 
L 1275 3053 
L 1275 0 
L 697 0 
L 697 3053 
L 147 3053 
L 147 3500 
L 697 3500 
L 697 3744 
Q 697 4328 969 4595 
Q 1241 4863 1831 4863 
L 2375 4863 
z
" transform="scale(0.015625)"/>
      <path id="DejaVuSans-76" d="M 191 3500 
L 800 3500 
L 1894 563 
L 2988 3500 
L 3597 3500 
L 2284 0 
L 1503 0 
L 191 3500 
z
" transform="scale(0.015625)"/>
     </defs>
     <use xlink:href="#DejaVuSans-4f"/>
     <use xlink:href="#DejaVuSans-75" transform="translate(78.710938 0)"/>
     <use xlink:href="#DejaVuSans-74" transform="translate(142.089844 0)"/>
     <use xlink:href="#DejaVuSans-65" transform="translate(181.298828 0)"/>
     <use xlink:href="#DejaVuSans-72" transform="translate(242.822266 0)"/>
     <use xlink:href="#DejaVuSans-20" transform="translate(283.935547 0)"/>
     <use xlink:href="#DejaVuSans-42" transform="translate(315.722656 0)"/>
     <use xlink:href="#DejaVuSans-6f" transform="translate(384.326172 0)"/>
     <use xlink:href="#DejaVuSans-72" transform="translate(445.507812 0)"/>
     <use xlink:href="#DejaVuSans-6f" transform="translate(484.371094 0)"/>
     <use xlink:href="#DejaVuSans-75" transform="translate(545.552734 0)"/>
     <use xlink:href="#DejaVuSans-67" transform="translate(608.931641 0)"/>
     <use xlink:href="#DejaVuSans-68" transform="translate(672.408203 0)"/>
     <use xlink:href="#DejaVuSans-73" transform="translate(735.787109 0)"/>
     <use xlink:href="#DejaVuSans-3a" transform="translate(787.886719 0)"/>
     <use xlink:href="#DejaVuSans-20" transform="translate(821.578125 0)"/>
     <use xlink:href="#DejaVuSans-45" transform="translate(853.365234 0)"/>
     <use xlink:href="#DejaVuSans-66" transform="translate(916.548828 0)"/>
     <use xlink:href="#DejaVuSans-66" transform="translate(951.753906 0)"/>
     <use xlink:href="#DejaVuSans-69" transform="translate(986.958984 0)"/>
     <use xlink:href="#DejaVuSans-63" transform="translate(1014.742188 0)"/>
     <use xlink:href="#DejaVuSans-69" transform="translate(1069.722656 0)"/>
     <use xlink:href="#DejaVuSans-65" transform="translate(1097.505859 0)"/>
     <use xlink:href="#DejaVuSans-6e" transform="translate(1159.029297 0)"/>
     <use xlink:href="#DejaVuSans-63" transform="translate(1222.408203 0)"/>
     <use xlink:href="#DejaVuSans-79" transform="translate(1277.388672 0)"/>
     <use xlink:href="#DejaVuSans-20" transform="translate(1336.568359 0)"/>
     <use xlink:href="#DejaVuSans-76" transform="translate(1368.355469 0)"/>
     <use xlink:href="#DejaVuSans-73" transform="translate(1427.535156 0)"/>
     <use xlink:href="#DejaVuSans-2e" transform="translate(1479.634766 0)"/>
     <use xlink:href="#DejaVuSans-20" transform="translate(1511.421875 0)"/>
     <use xlink:href="#DejaVuSans-44" transform="translate(1543.208984 0)"/>
     <use xlink:href="#DejaVuSans-65" transform="translate(1620.210938 0)"/>
     <use xlink:href="#DejaVuSans-6d" transform="translate(1681.734375 0)"/>
     <use xlink:href="#DejaVuSans-61" transform="translate(1779.146484 0)"/>
     <use xlink:href="#DejaVuSans-6e" transform="translate(1840.425781 0)"/>
     <use xlink:href="#DejaVuSans-64" transform="translate(1903.804688 0)"/>
    </g>
   </g>
   <g id="legend_1">
    <g id="line2d_42">
     <path d="M 61.42 36.038437 
L 71.42 36.038437 
L 81.42 36.038437 
" style="fill: none; stroke: #ff7f0e; stroke-width: 1.5; stroke-linecap: square"/>
    </g>
    <g id="text_16">
     <!-- Efficiency -->
     <g transform="translate(89.42 39.538437) scale(0.1 -0.1)">
      <use xlink:href="#DejaVuSans-45"/>
      <use xlink:href="#DejaVuSans-66" transform="translate(63.183594 0)"/>
      <use xlink:href="#DejaVuSans-66" transform="translate(98.388672 0)"/>
      <use xlink:href="#DejaVuSans-69" transform="translate(133.59375 0)"/>
      <use xlink:href="#DejaVuSans-63" transform="translate(161.376953 0)"/>
      <use xlink:href="#DejaVuSans-69" transform="translate(216.357422 0)"/>
      <use xlink:href="#DejaVuSans-65" transform="translate(244.140625 0)"/>
      <use xlink:href="#DejaVuSans-6e" transform="translate(305.664062 0)"/>
      <use xlink:href="#DejaVuSans-63" transform="translate(369.042969 0)"/>
      <use xlink:href="#DejaVuSans-79" transform="translate(424.023438 0)"/>
     </g>
    </g>
   </g>
  </g>
  <g id="axes_2">
   <g id="matplotlib.axis_3">
    <g id="ytick_6">
     <g id="line2d_43">
      <defs>
       <path id="m8ce9cb48ff" d="M 0 0 
L 3.5 0 
" style="stroke: #000000; stroke-width: 0.8"/>
      </defs>
      <g>
       <use xlink:href="#m8ce9cb48ff" x="446.56" y="146.470442" style="stroke: #000000; stroke-width: 0.8"/>
      </g>
     </g>
     <g id="text_17">
      <!-- 200 -->
      <g transform="translate(453.56 150.269661) scale(0.1 -0.1)">
       <use xlink:href="#DejaVuSans-32"/>
       <use xlink:href="#DejaVuSans-30" transform="translate(63.623047 0)"/>
       <use xlink:href="#DejaVuSans-30" transform="translate(127.246094 0)"/>
      </g>
     </g>
    </g>
    <g id="ytick_7">
     <g id="line2d_44">
      <g>
       <use xlink:href="#m8ce9cb48ff" x="446.56" y="120.286129" style="stroke: #000000; stroke-width: 0.8"/>
      </g>
     </g>
     <g id="text_18">
      <!-- 400 -->
      <g transform="translate(453.56 124.085347) scale(0.1 -0.1)">
       <use xlink:href="#DejaVuSans-34"/>
       <use xlink:href="#DejaVuSans-30" transform="translate(63.623047 0)"/>
       <use xlink:href="#DejaVuSans-30" transform="translate(127.246094 0)"/>
      </g>
     </g>
    </g>
    <g id="ytick_8">
     <g id="line2d_45">
      <g>
       <use xlink:href="#m8ce9cb48ff" x="446.56" y="94.101815" style="stroke: #000000; stroke-width: 0.8"/>
      </g>
     </g>
     <g id="text_19">
      <!-- 600 -->
      <g transform="translate(453.56 97.901034) scale(0.1 -0.1)">
       <use xlink:href="#DejaVuSans-36"/>
       <use xlink:href="#DejaVuSans-30" transform="translate(63.623047 0)"/>
       <use xlink:href="#DejaVuSans-30" transform="translate(127.246094 0)"/>
      </g>
     </g>
    </g>
    <g id="ytick_9">
     <g id="line2d_46">
      <g>
       <use xlink:href="#m8ce9cb48ff" x="446.56" y="67.917502" style="stroke: #000000; stroke-width: 0.8"/>
      </g>
     </g>
     <g id="text_20">
      <!-- 800 -->
      <g transform="translate(453.56 71.716721) scale(0.1 -0.1)">
       <use xlink:href="#DejaVuSans-38"/>
       <use xlink:href="#DejaVuSans-30" transform="translate(63.623047 0)"/>
       <use xlink:href="#DejaVuSans-30" transform="translate(127.246094 0)"/>
      </g>
     </g>
    </g>
    <g id="ytick_10">
     <g id="line2d_47">
      <g>
       <use xlink:href="#m8ce9cb48ff" x="446.56" y="41.733189" style="stroke: #000000; stroke-width: 0.8"/>
      </g>
     </g>
     <g id="text_21">
      <!-- 1000 -->
      <g transform="translate(453.56 45.532408) scale(0.1 -0.1)">
       <defs>
        <path id="DejaVuSans-31" d="M 794 531 
L 1825 531 
L 1825 4091 
L 703 3866 
L 703 4441 
L 1819 4666 
L 2450 4666 
L 2450 531 
L 3481 531 
L 3481 0 
L 794 0 
L 794 531 
z
" transform="scale(0.015625)"/>
       </defs>
       <use xlink:href="#DejaVuSans-31"/>
       <use xlink:href="#DejaVuSans-30" transform="translate(63.623047 0)"/>
       <use xlink:href="#DejaVuSans-30" transform="translate(127.246094 0)"/>
       <use xlink:href="#DejaVuSans-30" transform="translate(190.869141 0)"/>
      </g>
     </g>
    </g>
    <g id="text_22">
     <!-- Ridership -->
     <g transform="translate(490.608437 120.881104) rotate(-90) scale(0.1 -0.1)">
      <defs>
       <path id="DejaVuSans-52" d="M 2841 2188 
Q 3044 2119 3236 1894 
Q 3428 1669 3622 1275 
L 4263 0 
L 3584 0 
L 2988 1197 
Q 2756 1666 2539 1819 
Q 2322 1972 1947 1972 
L 1259 1972 
L 1259 0 
L 628 0 
L 628 4666 
L 2053 4666 
Q 2853 4666 3247 4331 
Q 3641 3997 3641 3322 
Q 3641 2881 3436 2590 
Q 3231 2300 2841 2188 
z
M 1259 4147 
L 1259 2491 
L 2053 2491 
Q 2509 2491 2742 2702 
Q 2975 2913 2975 3322 
Q 2975 3731 2742 3939 
Q 2509 4147 2053 4147 
L 1259 4147 
z
" transform="scale(0.015625)"/>
      </defs>
      <use xlink:href="#DejaVuSans-52"/>
      <use xlink:href="#DejaVuSans-69" transform="translate(69.482422 0)"/>
      <use xlink:href="#DejaVuSans-64" transform="translate(97.265625 0)"/>
      <use xlink:href="#DejaVuSans-65" transform="translate(160.742188 0)"/>
      <use xlink:href="#DejaVuSans-72" transform="translate(222.265625 0)"/>
      <use xlink:href="#DejaVuSans-73" transform="translate(263.378906 0)"/>
      <use xlink:href="#DejaVuSans-68" transform="translate(315.478516 0)"/>
      <use xlink:href="#DejaVuSans-69" transform="translate(378.857422 0)"/>
      <use xlink:href="#DejaVuSans-70" transform="translate(406.640625 0)"/>
     </g>
    </g>
   </g>
   <g id="line2d_48">
    <path d="M 54.92 74.856345 
L 56.089075 78.653071 
L 58.427224 91.057889 
L 59.596299 105.557452 
L 63.103522 143.361055 
L 64.272597 149.350716 
L 65.441672 155.994986 
L 66.610746 158.809799 
L 67.779821 155.569491 
L 68.948896 153.081981 
L 70.11797 148.85976 
L 72.456119 137.305932 
L 73.625194 128.665109 
L 74.794269 123.951932 
L 75.963343 124.377427 
L 77.132418 126.734016 
L 78.301493 130.137976 
L 79.470567 130.137976 
L 80.639642 126.897668 
L 81.808716 124.311967 
L 82.977791 122.446334 
L 84.146866 123.199133 
L 86.485015 118.682339 
L 87.65409 118.289575 
L 88.823164 116.718516 
L 89.992239 117.733158 
L 91.161313 117.995001 
L 92.330388 119.009643 
L 93.499463 117.176741 
L 94.668537 117.765888 
L 95.837612 117.274933 
L 97.006687 114.951075 
L 98.175761 116.423942 
L 99.344836 114.460119 
L 100.51391 113.249094 
L 101.682985 110.990697 
L 102.85206 104.215506 
L 104.021134 101.760727 
L 105.190209 100.32059 
L 106.359284 99.50233 
L 107.528358 97.342124 
L 108.697433 92.105261 
L 109.866507 86.017409 
L 111.035582 82.122492 
L 112.204657 85.951948 
L 113.373731 98.782261 
L 115.711881 131.119888 
L 116.880955 144.310236 
L 118.05003 150.267167 
L 119.219104 155.209456 
L 121.557254 161.526422 
L 122.726328 162.770177 
L 123.895403 159.169834 
L 125.064478 156.224098 
L 126.233552 151.936417 
L 127.402627 145.063035 
L 128.571701 140.186207 
L 129.740776 132.821869 
L 130.909851 129.417908 
L 132.078925 130.661663 
L 133.248 131.610844 
L 134.417075 134.425658 
L 135.586149 134.491118 
L 136.755224 130.727123 
L 137.924299 129.286986 
L 139.093373 129.974324 
L 140.262448 130.498011 
L 141.431522 130.759854 
L 142.600597 130.007055 
L 143.769672 127.846849 
L 144.938746 124.475619 
L 146.107821 123.068212 
L 147.276896 123.493707 
L 148.44597 121.889918 
L 149.615045 122.773638 
L 150.784119 123.035481 
L 153.122269 120.515241 
L 154.291343 117.765888 
L 155.460418 115.343839 
L 156.629493 113.380016 
L 157.798567 112.987251 
L 158.967642 109.190526 
L 160.136716 108.503188 
L 161.305791 105.295609 
L 162.474866 99.109565 
L 163.64394 97.636698 
L 164.813015 93.414477 
L 165.98209 91.777958 
L 167.151164 95.640144 
L 168.320239 100.647894 
L 169.489313 110.728854 
L 170.658388 123.428246 
L 171.827463 134.62204 
L 172.996537 144.604809 
L 174.165612 151.478192 
L 175.334687 156.093177 
L 176.503761 159.038912 
L 177.672836 160.609971 
L 178.84191 161.264579 
L 180.010985 159.366216 
L 181.18006 156.976897 
L 182.349134 153.605667 
L 183.518209 147.97604 
L 184.687284 141.168118 
L 185.856358 135.669413 
L 187.025433 133.050981 
L 188.194507 131.087158 
L 189.363582 133.214633 
L 190.532657 133.509207 
L 191.701731 132.821869 
L 192.870806 132.461834 
L 194.039881 131.774496 
L 195.208955 130.170707 
L 196.37803 129.057873 
L 197.547104 129.679751 
L 198.716179 128.894222 
L 199.885254 126.897668 
L 201.054328 126.864937 
L 202.223403 122.90456 
L 203.392478 120.482511 
L 204.561552 122.93729 
L 205.730627 122.773638 
L 206.899701 125.359339 
L 208.068776 123.460977 
L 209.237851 120.580702 
L 210.406925 115.245648 
L 211.576 111.907148 
L 212.745075 113.609129 
L 213.914149 112.627217 
L 215.083224 111.088889 
L 216.252299 108.339536 
L 217.421373 98.716801 
L 218.590448 90.534203 
L 219.759522 86.99932 
L 222.097672 73.416208 
L 223.266746 77.442046 
L 224.435821 81.99157 
L 225.604896 92.137992 
L 226.77397 111.743496 
L 227.943045 123.035481 
L 230.281194 141.986378 
L 231.450269 147.419623 
L 232.619343 151.576383 
L 233.788418 155.143996 
L 234.957493 156.38775 
L 236.126567 155.438569 
L 237.295642 153.638398 
L 238.464716 150.659932 
L 239.633791 145.226687 
L 241.97194 135.669413 
L 243.141015 131.545383 
L 244.31009 131.054427 
L 245.479164 132.821869 
L 247.817313 132.98552 
L 248.986388 130.890775 
L 250.155463 131.414462 
L 251.324537 130.039785 
L 252.493612 128.894222 
L 253.662687 129.647021 
L 254.831761 126.341251 
L 256.000836 126.373981 
L 257.16991 126.995859 
L 258.338985 126.439442 
L 259.50806 123.559168 
L 261.846209 122.020839 
L 263.015284 116.849437 
L 264.184358 114.59104 
L 265.353433 110.008786 
L 266.522507 104.019124 
L 267.691582 105.36107 
L 268.860657 105.131957 
L 270.029731 105.622913 
L 271.198806 105.753835 
L 272.367881 100.189668 
L 273.536955 95.574683 
L 274.70603 88.66857 
L 275.875104 78.391227 
L 277.044179 73.939894 
L 278.213254 68.768492 
L 279.382328 68.768492 
L 281.720478 84.151776 
L 284.058627 113.380016 
L 285.227701 124.050124 
L 286.396776 136.127638 
L 287.565851 141.593613 
L 288.734925 144.703001 
L 289.904 150.790853 
L 291.073075 153.802049 
L 292.242149 153.932971 
L 293.411224 153.507476 
L 294.580299 147.485084 
L 295.749373 140.546241 
L 298.087522 128.403266 
L 299.256597 125.555722 
L 300.425672 124.639271 
L 301.594746 125.883026 
L 302.763821 129.123334 
L 303.932896 130.792584 
L 306.271045 130.661663 
L 308.609194 128.043231 
L 309.778269 125.4248 
L 310.947343 123.526437 
L 312.116418 119.958825 
L 314.454567 115.245648 
L 315.623642 113.805511 
L 316.792716 116.22756 
L 317.961791 117.92954 
L 319.130866 119.369678 
L 320.29994 116.22756 
L 321.469015 111.678036 
L 323.807164 95.967448 
L 324.976239 92.563487 
L 326.145313 91.417923 
L 327.314388 92.82533 
L 328.483463 94.756423 
L 329.652537 90.043247 
L 330.821612 79.307678 
L 331.990687 70.470473 
L 333.159761 63.204326 
L 334.328836 59.473061 
L 335.49791 59.113027 
L 336.666985 60.553164 
L 339.005134 68.768492 
L 340.174209 77.834811 
L 341.343284 85.428262 
L 342.512358 95.738335 
L 343.681433 108.765031 
L 344.850507 116.391212 
L 346.019582 127.06132 
L 347.188657 135.702143 
L 348.357731 141.528153 
L 349.526806 148.7943 
L 350.695881 151.183618 
L 351.864955 150.49628 
L 353.03403 150.201706 
L 354.203104 147.419623 
L 355.372179 143.00102 
L 356.541254 141.364501 
L 357.710328 138.386035 
L 358.879403 137.404123 
L 360.048478 136.094908 
L 361.217552 129.352447 
L 362.386627 126.373981 
L 363.555701 125.555722 
L 364.724776 123.002751 
L 365.893851 125.981217 
L 367.062925 123.591898 
L 368.232 117.04582 
L 369.401075 113.380016 
L 370.570149 109.223256 
L 371.739224 109.321447 
L 372.908299 111.154349 
L 374.077373 116.685785 
L 375.246448 116.980359 
L 376.415522 114.034624 
L 377.584597 113.445477 
L 378.753672 108.994143 
L 379.922746 107.684928 
L 381.091821 110.630663 
L 382.260896 109.386908 
L 383.42997 106.932129 
L 384.599045 105.131957 
L 386.937194 90.27236 
L 388.106269 85.886487 
L 389.275343 74.987267 
L 391.613493 51.06135 
L 392.782567 38.885645 
L 393.951642 31.979532 
L 395.120716 34.074277 
L 396.289791 38.263767 
L 397.458866 47.002782 
L 400.96609 83.62809 
L 402.135164 97.603967 
L 403.304239 114.067354 
L 405.642388 141.135388 
L 406.811463 147.681466 
L 407.980537 148.597917 
L 409.149612 147.943309 
L 410.318687 147.616005 
L 411.487761 145.390339 
L 412.656836 143.78655 
L 413.82591 140.808084 
L 414.994985 135.112996 
L 416.16406 131.31627 
L 417.333134 128.861491 
L 418.502209 127.257702 
L 419.671284 124.541079 
L 420.840358 120.089746 
L 422.009433 114.165545 
L 424.347582 105.590183 
L 425.516657 103.888202 
L 426.685731 100.942467 
L 427.854806 98.487688 
L 429.023881 100.091477 
L 430.192955 99.567791 
L 431.36203 97.669428 
L 432.531104 97.276663 
L 433.700179 93.349016 
L 434.869254 93.447208 
L 437.207403 95.378301 
L 438.376478 93.67632 
L 439.545552 90.436011 
L 440.714627 88.60311 
L 441.883701 82.875291 
L 443.052776 78.522149 
L 445.390925 68.375728 
L 446.56 78.423958 
L 446.56 78.423958 
" clip-path="url(#p33dcbdf1f4)" style="fill: none; stroke: #2ca02c; stroke-width: 1.5; stroke-linecap: square"/>
   </g>
   <g id="patch_7">
    <path d="M 54.92 169.309709 
L 54.92 25.44 
" style="fill: none; stroke: #000000; stroke-width: 0.8; stroke-linejoin: miter; stroke-linecap: square"/>
   </g>
   <g id="patch_8">
    <path d="M 446.56 169.309709 
L 446.56 25.44 
" style="fill: none; stroke: #000000; stroke-width: 0.8; stroke-linejoin: miter; stroke-linecap: square"/>
   </g>
   <g id="patch_9">
    <path d="M 54.92 169.309709 
L 446.56 169.309709 
" style="fill: none; stroke: #000000; stroke-width: 0.8; stroke-linejoin: miter; stroke-linecap: square"/>
   </g>
   <g id="patch_10">
    <path d="M 54.92 25.44 
L 446.56 25.44 
" style="fill: none; stroke: #000000; stroke-width: 0.8; stroke-linejoin: miter; stroke-linecap: square"/>
   </g>
   <g id="legend_2">
    <g id="line2d_49">
     <path d="M 60.8782 51.82774 
L 70.8782 51.82774 
L 80.8782 51.82774 
" style="fill: none; stroke: #2ca02c; stroke-width: 1.5; stroke-linecap: square"/>
    </g>
    <g id="text_23">
     <!-- Demand -->
     <g transform="translate(88.8782 55.32774) scale(0.1 -0.1)">
      <use xlink:href="#DejaVuSans-44"/>
      <use xlink:href="#DejaVuSans-65" transform="translate(77.001953 0)"/>
      <use xlink:href="#DejaVuSans-6d" transform="translate(138.525391 0)"/>
      <use xlink:href="#DejaVuSans-61" transform="translate(235.9375 0)"/>
      <use xlink:href="#DejaVuSans-6e" transform="translate(297.216797 0)"/>
      <use xlink:href="#DejaVuSans-64" transform="translate(360.595703 0)"/>
     </g>
    </g>
   </g>
  </g>
 </g>
 <defs>
  <clipPath id="p33dcbdf1f4">
   <rect x="54.92" y="25.44" width="391.64" height="143.869709"/>
  </clipPath>
 </defs>
</svg>
